<svg width="44" height="28" viewBox="0 0 44 28" fill="none" xmlns="http://www.w3.org/2000/svg">
<rect width="44" height="28" rx="14" transform="matrix(-1 0 0 1 44 0)" fill="url(#paint0_linear_2499_135305)"/>
<path d="M17.4451 18.013C13.5203 16.8272 11.2999 12.6842 12.4857 8.75942C12.9603 7.18878 13.9084 5.89109 15.1266 4.97543C15.4548 4.72873 15.3628 4.18316 14.9541 4.14424C12.9775 3.95606 10.9255 4.35903 9.07506 5.42739C4.34075 8.16074 2.71866 14.2145 5.45201 18.9488C8.18537 23.6831 14.2391 25.3052 18.9734 22.5718C20.7225 21.562 22.0468 20.099 22.8836 18.4167C23.0664 18.0491 22.6519 17.6829 22.2691 17.8312C20.7794 18.4083 19.093 18.5109 17.4451 18.013Z" fill="#FDFEFE"/>
<path d="M33.84 18.4663L32.1476 16.3802C31.9708 16.1623 31.6383 16.1623 31.4615 16.3802L29.769 18.4663C29.6374 18.6285 29.6374 18.8607 29.769 19.0229L31.4615 21.1089C31.6383 21.3268 31.9708 21.3268 32.1476 21.1089L33.84 19.0229C33.9716 18.8607 33.9716 18.6285 33.84 18.4663Z" fill="#FDFEFE"/>
<path d="M25.8006 9.40046L24.7852 8.14884C24.6791 8.0181 24.4796 8.0181 24.3735 8.14884L23.3581 9.40046C23.2791 9.49778 23.2791 9.63711 23.3581 9.73444L24.3735 10.9861C24.4796 11.1168 24.6791 11.1168 24.7852 10.9861L25.8006 9.73444C25.8796 9.63711 25.8796 9.49778 25.8006 9.40046Z" fill="#FDFEFE"/>
<path d="M36.7413 7.59985L36.132 6.84887C36.0684 6.77043 35.9487 6.77043 35.8851 6.84887L35.2758 7.59985C35.2284 7.65824 35.2284 7.74184 35.2758 7.80023L35.8851 8.55121C35.9487 8.62965 36.0684 8.62965 36.132 8.55121L36.7413 7.80023C36.7887 7.74184 36.7887 7.65824 36.7413 7.59985Z" fill="#FDFEFE"/>
<defs>
<linearGradient id="paint0_linear_2499_135305" x1="22" y1="-8" x2="22" y2="28" gradientUnits="userSpaceOnUse">
<stop stop-color="#045588"/>
<stop offset="1" stop-color="#067BC4"/>
</linearGradient>
</defs>
</svg>
