<svg width="44" height="28" viewBox="0 0 44 28" fill="none" xmlns="http://www.w3.org/2000/svg">
<mask id="mask0_21669_16016" style="mask-type:luminance" maskUnits="userSpaceOnUse" x="0" y="0" width="44" height="28">
<rect width="44" height="28" rx="14" fill="white"/>
</mask>
<g mask="url(#mask0_21669_16016)">
<rect width="44" height="28" rx="14" fill="url(#paint0_linear_21669_16016)"/>
<path opacity="0.8" d="M26.3175 6.10033C26.4578 5.85555 26.7456 5.73632 27.0179 5.81023L29.8374 6.57558C29.9437 6.60445 30.0559 6.60445 30.1622 6.57558L32.9817 5.81023C33.254 5.73632 33.5418 5.85555 33.6821 6.10033L35.1346 8.6352C35.1894 8.73082 35.2686 8.81011 35.3643 8.8649L37.8991 10.3174C38.1439 10.4577 38.2631 10.7455 38.1892 11.0178L37.4239 13.8372C37.395 13.9436 37.395 14.0557 37.4239 14.1621L38.1892 16.9816C38.2631 17.2539 38.1439 17.5417 37.8991 17.6819L35.3643 19.1344C35.2686 19.1892 35.1894 19.2685 35.1346 19.3641L33.6821 21.899C33.5418 22.1438 33.254 22.263 32.9817 22.1891L30.1622 21.4238C30.0559 21.3949 29.9437 21.3949 29.8374 21.4238L27.0179 22.1891C26.7456 22.263 26.4578 22.1438 26.3175 21.899L24.865 19.3641C24.8102 19.2685 24.7309 19.1892 24.6353 19.1344L22.1004 17.682C21.8557 17.5417 21.7364 17.2539 21.8103 16.9816L22.5757 14.1621C22.6046 14.0557 22.6046 13.9436 22.5757 13.8372L21.8103 11.0178C21.7364 10.7455 21.8557 10.4577 22.1004 10.3174L24.6353 8.8649C24.7309 8.81011 24.8102 8.73082 24.865 8.6352L26.3175 6.10033Z" fill="#FDFEFE"/>
<path opacity="0.8" d="M20.9816 18.1574C20.8357 17.939 20.7342 17.6941 20.683 17.4365L20.077 14.39C20.0257 14.1324 20.0257 13.8672 20.077 13.6096L20.683 10.5631C20.7342 10.3055 20.8357 10.0606 20.9816 9.84219L22.7073 7.25951C22.8532 7.04113 23.0407 6.85363 23.2591 6.70771L25.8417 4.98203C26.0601 4.83611 26.3051 4.73463 26.5627 4.68339L29.6092 4.07741C29.8668 4.02617 30.1319 4.02617 30.3895 4.07741L33.436 4.68339C33.6936 4.73463 33.9386 4.83611 34.157 4.98202L36.7397 6.70771C36.958 6.85363 37.1455 7.04113 37.2914 7.25951L39.0171 9.84219C39.1631 10.0606 39.2645 10.3055 39.3158 10.5631L39.9218 13.6096C39.973 13.8672 39.973 14.1324 39.9218 14.39L39.3158 17.4365C39.2645 17.6941 39.1631 17.939 39.0171 18.1574L37.2914 20.7401C37.1455 20.9585 36.958 21.146 36.7397 21.2919L34.157 23.0176C33.9386 23.1635 33.6936 23.265 33.436 23.3162L30.3895 23.9222C30.1319 23.9734 29.8668 23.9734 29.6092 23.9222L26.5627 23.3162C26.3051 23.265 26.0601 23.1635 25.8417 23.0176L23.2591 21.2919C23.0407 21.146 22.8532 20.9585 22.7073 20.7401L20.9816 18.1574Z" fill="#FDFEFE"/>
<path fill-rule="evenodd" clip-rule="evenodd" d="M41 13.621C41 13.2786 41.2776 13.001 41.62 13.001H42.39C42.7324 13.001 43.01 13.2786 43.01 13.621V14.381C43.01 14.7234 42.7324 15.001 42.39 15.001H41.62C41.2776 15.001 41 14.7234 41 14.381V13.621Z" fill="#FDFEFE" fill-opacity="0.4"/>
<path d="M41.6201 13.2012H42.3896C42.6216 13.2012 42.8096 13.3891 42.8096 13.6211V14.3809C42.8096 14.6128 42.6216 14.8008 42.3896 14.8008H41.6201C41.3882 14.8008 41.2002 14.6128 41.2002 14.3809V13.6211C41.2002 13.3891 41.3882 13.2012 41.6201 13.2012Z" stroke="#1BA5F8" stroke-opacity="0.2" stroke-width="0.4" stroke-linecap="square"/>
<path fill-rule="evenodd" clip-rule="evenodd" d="M19 13.621C19 13.2786 18.7224 13.001 18.38 13.001H16.62C16.2776 13.001 16 13.2786 16 13.621V14.381C16 14.7234 16.2776 15.001 16.62 15.001H18.38C18.7224 15.001 19 14.7234 19 14.381V13.621Z" fill="#FDFEFE" fill-opacity="0.4"/>
<path d="M18.3799 13.2012H16.6201C16.3882 13.2012 16.2002 13.3891 16.2002 13.6211V14.3809C16.2002 14.6128 16.3882 14.8008 16.6201 14.8008H18.3799C18.6118 14.8008 18.7998 14.6128 18.7998 14.3809V13.6211C18.7998 13.3891 18.6118 13.2012 18.3799 13.2012Z" stroke="#1BA5F8" stroke-opacity="0.2" stroke-width="0.4" stroke-linecap="round"/>
<path fill-rule="evenodd" clip-rule="evenodd" d="M29.62 3C29.2776 3 29 2.72242 29 2.38V1.61C29 1.26758 29.2776 0.99 29.62 0.99H30.38C30.7224 0.99 31 1.26758 31 1.61V2.38C31 2.72242 30.7224 3 30.38 3H29.62Z" fill="#FDFEFE" fill-opacity="0.4"/>
<path d="M29.2002 2.37988V1.61035C29.2002 1.37839 29.3882 1.19043 29.6201 1.19043H30.3799C30.6118 1.19043 30.7998 1.37839 30.7998 1.61035V2.37988C30.7998 2.61184 30.6118 2.7998 30.3799 2.7998H29.6201C29.3882 2.7998 29.2002 2.61184 29.2002 2.37988Z" stroke="#1BA5F8" stroke-opacity="0.2" stroke-width="0.4" stroke-linecap="square"/>
<path fill-rule="evenodd" clip-rule="evenodd" d="M30.38 25C30.7224 25 31 25.2776 31 25.62V26.39C31 26.7324 30.7224 27.01 30.38 27.01H29.62C29.2776 27.01 29 26.7324 29 26.39V25.62C29 25.2776 29.2776 25 29.62 25H30.38Z" fill="#FDFEFE" fill-opacity="0.4"/>
<path d="M30.7998 25.6201V26.3896C30.7998 26.6216 30.6118 26.8096 30.3799 26.8096H29.6201C29.3882 26.8096 29.2002 26.6216 29.2002 26.3896V25.6201C29.2002 25.3882 29.3882 25.2002 29.6201 25.2002H30.3799C30.6118 25.2002 30.7998 25.3882 30.7998 25.6201Z" stroke="#1BA5F8" stroke-opacity="0.2" stroke-width="0.4" stroke-linecap="square"/>
<path fill-rule="evenodd" clip-rule="evenodd" d="M21.9531 6.49079C21.7109 6.73292 21.3184 6.73292 21.0762 6.49079L19.8317 5.24629C19.5896 5.00416 19.5896 4.6116 19.8317 4.36947L20.3691 3.83207C20.6113 3.58995 21.0038 3.58995 21.2459 3.83207L22.4905 5.07658C22.7326 5.3187 22.7326 5.71127 22.4905 5.95339L21.9531 6.49079Z" fill="#FDFEFE" fill-opacity="0.4"/>
<path d="M21.2177 6.34915L19.9734 5.10481C19.8094 4.94079 19.8094 4.67497 19.9734 4.51095L20.5106 3.97371C20.6746 3.80969 20.9405 3.80969 21.1045 3.97371L22.3488 5.21806C22.5128 5.38208 22.5128 5.6479 22.3488 5.81192L21.8116 6.34915C21.6476 6.51317 21.3817 6.51317 21.2177 6.34915Z" stroke="#1BA5F8" stroke-opacity="0.2" stroke-width="0.4" stroke-linecap="round"/>
<path fill-rule="evenodd" clip-rule="evenodd" d="M38.0469 21.5097C38.2891 21.2676 38.6816 21.2676 38.9238 21.5097L39.4682 22.0542C39.7104 22.2963 39.7104 22.6889 39.4682 22.931L38.9308 23.4684C38.6887 23.7105 38.2961 23.7105 38.054 23.4684L37.5095 22.9239C37.2674 22.6818 37.2674 22.2892 37.5095 22.0471L38.0469 21.5097Z" fill="#FDFEFE" fill-opacity="0.4"/>
<path d="M38.7823 21.6513L39.3264 22.1955C39.4904 22.3595 39.4904 22.6253 39.3264 22.7893L38.7892 23.3266C38.6252 23.4906 38.3593 23.4906 38.1953 23.3266L37.6512 22.7824C37.4872 22.6184 37.4872 22.3526 37.6512 22.1886L38.1884 21.6513C38.3524 21.4873 38.6183 21.4873 38.7823 21.6513Z" stroke="#1BA5F8" stroke-opacity="0.2" stroke-width="0.4" stroke-linecap="square"/>
<path fill-rule="evenodd" clip-rule="evenodd" d="M37.5097 5.95354C37.2676 5.71142 37.2676 5.31886 37.5097 5.07673L38.0542 4.53226C38.2963 4.29013 38.6889 4.29013 38.931 4.53226L39.4684 5.06966C39.7105 5.31178 39.7105 5.70435 39.4684 5.94647L38.9239 6.49094C38.6818 6.73307 38.2892 6.73307 38.0471 6.49094L37.5097 5.95354Z" fill="#FDFEFE" fill-opacity="0.4"/>
<path d="M37.6513 5.21821L38.1955 4.67407C38.3595 4.51005 38.6253 4.51005 38.7893 4.67407L39.3266 5.2113C39.4906 5.37532 39.4906 5.64114 39.3266 5.80516L38.7824 6.3493C38.6184 6.51332 38.3526 6.51332 38.1886 6.3493L37.6513 5.81207C37.4873 5.64805 37.4873 5.38223 37.6513 5.21821Z" stroke="#1BA5F8" stroke-opacity="0.2" stroke-width="0.4" stroke-linecap="square"/>
<path fill-rule="evenodd" clip-rule="evenodd" d="M22.4903 22.0474C22.7324 22.2896 22.7324 22.6821 22.4903 22.9242L21.2458 24.1688C21.0037 24.4109 20.6111 24.4109 20.369 24.1688L19.8316 23.6314C19.5895 23.3892 19.5895 22.9967 19.8316 22.7545L21.0761 21.51C21.3182 21.2679 21.7108 21.2679 21.9529 21.51L22.4903 22.0474Z" fill="#FDFEFE" fill-opacity="0.4"/>
<path d="M22.3487 22.7828L21.1043 24.0271C20.9403 24.1911 20.6745 24.1911 20.5105 24.0271L19.9732 23.4899C19.8092 23.3259 19.8092 23.06 19.9732 22.896L21.2176 21.6517C21.3816 21.4877 21.6474 21.4877 21.8114 21.6517L22.3487 22.1889C22.5127 22.3529 22.5127 22.6187 22.3487 22.7828Z" stroke="#1BA5F8" stroke-opacity="0.2" stroke-width="0.4" stroke-linecap="round"/>
<path opacity="0.2" fill-rule="evenodd" clip-rule="evenodd" d="M14.4273 4.7185C15.5446 4.79153 16.4282 5.7209 16.4282 6.85666C16.4282 8.04008 15.4689 8.99944 14.2855 8.99944C14.2725 8.99944 14.2596 8.99932 14.2467 8.99909H11.7793C11.7576 8.99955 11.7359 8.99979 11.7141 8.99979C11.6923 8.99979 11.6706 8.99955 11.6489 8.99909H8.77659C8.75589 8.99983 8.7351 9.00021 8.71422 9.00021C7.76748 9.00021 7 8.23272 7 7.28598C7 6.33924 7.76748 5.57176 8.71422 5.57176C8.72433 5.57176 8.73442 5.57184 8.74449 5.57202C8.95215 4.1179 10.2026 3 11.7141 3C12.9125 3 13.9467 3.70268 14.4273 4.7185Z" fill="#FDFEFE"/>
<path opacity="0.32" fill-rule="evenodd" clip-rule="evenodd" d="M13.1896 6.43211C14.1204 6.49324 14.8565 7.26757 14.8565 8.21381C14.8565 9.19996 14.057 9.9994 13.0709 9.9994L13.0409 9.99915H10.979C10.9623 9.99948 10.9455 9.99965 10.9287 9.99965C10.9118 9.99965 10.895 9.99948 10.8783 9.99915H8.47468C8.45934 9.99964 8.44393 9.99989 8.42847 9.99989C7.63955 9.99989 7 9.36034 7 8.57142C7 7.78249 7.63955 7.14294 8.42847 7.14294C8.43703 7.14294 8.44556 7.14302 8.45408 7.14317C8.62717 5.9315 9.66913 5 10.9287 5C11.9273 5 12.7892 5.58558 13.1896 6.43211Z" fill="#FDFEFE"/>
<path opacity="0.2" fill-rule="evenodd" clip-rule="evenodd" d="M-0.157148 16.165C-2.01903 16.287 -3.49144 17.8358 -3.49144 19.7286C-3.49144 21.7009 -1.89253 23.2998 0.0798359 23.2998C0.100413 23.2998 0.12095 23.2997 0.141444 23.2993H4.33945C4.34809 23.2994 4.35673 23.2994 4.36538 23.2994C4.37403 23.2994 4.38267 23.2994 4.39131 23.2993H9.29942C9.32127 23.2998 9.34318 23.3001 9.36514 23.3001C10.943 23.3001 12.2222 22.0209 12.2222 20.443C12.2222 18.8652 10.943 17.586 9.36514 17.586C9.34829 17.586 9.33148 17.5862 9.3147 17.5865C8.9686 15.1629 6.88457 13.2998 4.36538 13.2998C2.36767 13.2998 0.643612 14.4714 -0.157148 16.165Z" fill="#FDFEFE"/>
<path opacity="0.32" fill-rule="evenodd" clip-rule="evenodd" d="M7.89619 19.729C7.61929 17.7902 5.95213 16.2998 3.93685 16.2998C2.33868 16.2998 0.95944 17.2371 0.31887 18.592C-1.1706 18.6896 -2.3485 19.9286 -2.3485 21.4428C-2.3485 23.0206 -1.0694 24.2997 0.508447 24.2997C0.524684 24.2997 0.54089 24.2996 0.557063 24.2993H7.89257C7.90721 24.2996 7.92189 24.2997 7.93661 24.2997C9.19889 24.2997 10.2222 23.2765 10.2222 22.0142C10.2222 20.7519 9.19889 19.7286 7.93661 19.7286C7.92311 19.7286 7.90964 19.7287 7.89619 19.729Z" fill="#FDFEFE"/>
</g>
<defs>
<linearGradient id="paint0_linear_21669_16016" x1="0" y1="14" x2="44" y2="14" gradientUnits="userSpaceOnUse">
<stop stop-color="#49B6F9"/>
<stop offset="1" stop-color="#76C8FB"/>
</linearGradient>
</defs>
</svg>
