<svg width="24" height="24" viewBox="0 0 24 24" fill="none" xmlns="http://www.w3.org/2000/svg">
    <path fill-rule="evenodd" clip-rule="evenodd" d="M12.0019 0.959473V0.959473C18.0997 0.959473 23.0419 5.90171 23.0419 11.9995V11.9995C23.0419 18.0972 18.0997 23.0395 12.0019 23.0395V23.0395C5.90415 23.0395 0.961914 18.0972 0.961914 11.9995V11.9995C0.961914 5.90171 5.90415 0.959473 12.0019 0.959473Z" stroke="white" stroke-width="1.5" stroke-linecap="round" stroke-linejoin="round"/>
    <path d="M8.64574 15.0365C8.46788 15.0365 8.32436 15.1812 8.32558 15.3578C8.32436 15.5357 8.4691 15.6805 8.64574 15.6805C8.82238 15.6805 8.96713 15.5357 8.96713 15.3591C8.96713 15.1824 8.82361 15.0365 8.64574 15.0365" stroke="white" stroke-width="1.5" stroke-linecap="round" stroke-linejoin="round"/>
    <path d="M12.6116 15.6805C12.5564 13.1671 10.8317 11.4424 8.3183 11.3872" stroke="white" stroke-width="1.5" stroke-linecap="round" stroke-linejoin="round"/>
    <path d="M8.3183 7.09277C9.4039 7.10504 10.422 7.28904 11.3531 7.61779C13.7365 8.46051 15.5385 10.2613 16.38 12.6447C16.7087 13.5757 16.8927 14.5938 16.905 15.6794" stroke="white" stroke-width="1.5" stroke-linecap="round" stroke-linejoin="round"/>
</svg>
