<svg width="26" height="26" viewBox="0 0 26 26" fill="none" xmlns="http://www.w3.org/2000/svg">
<rect x="0.5" y="0.5" width="25" height="25" rx="3.5" stroke="#CBD3E5"/>
<g clip-path="url(#clip0_6370_100366)">
<path d="M12.0571 10.4189C12.4266 9.55006 12.4804 8.58581 12.2088 7.69752C11.9372 6.80923 11.3578 6.05444 10.5736 5.56727C9.78945 5.0801 8.85128 4.89212 7.92584 5.03673C7.0004 5.18135 6.14763 5.6492 5.5191 6.35713C4.89056 7.06506 4.52697 7.96722 4.49294 8.90327C4.45891 9.83932 4.75664 10.7486 5.33322 11.4696C5.90981 12.1906 6.72789 12.6765 7.64209 12.8411C8.55629 13.0056 9.50739 12.8381 10.3264 12.3682L16.5159 17.8637L15.3163 19.2148L17.7183 21.3474L18.9217 19.9919L19.6166 20.609L21.3436 18.6639L12.0571 10.4189ZM7.16117 10.3955C6.88211 10.1492 6.68436 9.82351 6.59299 9.45961C6.50161 9.09572 6.52072 8.71002 6.64789 8.3514C6.77507 7.99277 7.00458 7.67737 7.30735 7.44515C7.61012 7.21294 7.97251 7.07437 8.3486 7.047C8.72469 7.01963 9.09755 7.10469 9.41993 7.29142C9.74231 7.47814 9.99969 7.75811 10.1595 8.09585C10.3192 8.4336 10.3742 8.8139 10.3174 9.18857C10.2606 9.56325 10.0946 9.91544 9.84037 10.2005C9.50104 10.581 9.02873 10.8151 8.52669 10.8517C8.02464 10.8882 7.53369 10.7242 7.16117 10.3955Z" fill="#CBD3E5"/>
</g>
<defs>
<clipPath id="clip0_6370_100366">
<rect width="20" height="8" fill="white" transform="translate(8.17773 3.36951) rotate(41.6003)"/>
</clipPath>
</defs>
</svg>
