<?xml version="1.0" encoding="utf-8"?>
<svg version="1.1" xmlns:xlink="http://www.w3.org/1999/xlink" width="19px" height="19px" xmlns="http://www.w3.org/2000/svg">
  <g transform="matrix(1 0 0 1 -1277 -437 )">
    <path d="M 14.806640625 10.8483072916667  C 14.9633246527778 10.6916232638889  15.0416666666667 10.5060763888889  15.0416666666667 10.2916666666667  L 15.0416666666667 8.70833333333333  C 15.0416666666667 8.49392361111111  14.9633246527778 8.30837673611111  14.806640625 8.15169270833333  C 14.6499565972222 7.99500868055556  14.4644097222222 7.91666666666667  14.25 7.91666666666667  L 11.0833333333333 7.91666666666667  L 11.0833333333333 4.75  C 11.0833333333333 4.53559027777778  11.0049913194444 4.35004340277778  10.8483072916667 4.193359375  C 10.6916232638889 4.03667534722222  10.5060763888889 3.95833333333333  10.2916666666667 3.95833333333333  L 8.70833333333333 3.95833333333333  C 8.49392361111111 3.95833333333333  8.30837673611111 4.03667534722222  8.15169270833333 4.193359375  C 7.99500868055556 4.35004340277778  7.91666666666667 4.53559027777778  7.91666666666667 4.75  L 7.91666666666667 7.91666666666667  L 4.75 7.91666666666667  C 4.53559027777778 7.91666666666667  4.35004340277778 7.99500868055556  4.193359375 8.15169270833333  C 4.03667534722222 8.30837673611111  3.95833333333333 8.49392361111111  3.95833333333333 8.70833333333333  L 3.95833333333333 10.2916666666667  C 3.95833333333333 10.5060763888889  4.03667534722222 10.6916232638889  4.193359375 10.8483072916667  C 4.35004340277778 11.0049913194444  4.53559027777778 11.0833333333333  4.75 11.0833333333333  L 7.91666666666667 11.0833333333333  L 7.91666666666667 14.25  C 7.91666666666667 14.4644097222222  7.99500868055556 14.6499565972222  8.15169270833333 14.806640625  C 8.30837673611111 14.9633246527778  8.49392361111111 15.0416666666667  8.70833333333333 15.0416666666667  L 10.2916666666667 15.0416666666667  C 10.5060763888889 15.0416666666667  10.6916232638889 14.9633246527778  10.8483072916667 14.806640625  C 11.0049913194444 14.6499565972222  11.0833333333333 14.4644097222222  11.0833333333333 14.25  L 11.0833333333333 11.0833333333333  L 14.25 11.0833333333333  C 14.4644097222222 11.0833333333333  14.6499565972222 11.0049913194444  14.806640625 10.8483072916667  Z M 17.7259114583333 4.7314453125  C 18.5753038194444 6.18695746527778  19 7.77647569444444  19 9.5  C 19 11.2235243055556  18.5753038194444 12.8130425347222  17.7259114583333 14.2685546875  C 16.8765190972222 15.7240668402778  15.7240668402778 16.8765190972222  14.2685546875 17.7259114583333  C 12.8130425347222 18.5753038194444  11.2235243055556 19  9.5 19  C 7.77647569444444 19  6.18695746527778 18.5753038194444  4.7314453125 17.7259114583333  C 3.27593315972222 16.8765190972222  2.12348090277778 15.7240668402778  1.27408854166667 14.2685546875  C 0.424696180555555 12.8130425347222  0 11.2235243055556  0 9.5  C 0 7.77647569444444  0.424696180555555 6.18695746527778  1.27408854166667 4.7314453125  C 2.12348090277778 3.27593315972222  3.27593315972222 2.12348090277778  4.7314453125 1.27408854166667  C 6.18695746527778 0.424696180555554  7.77647569444444 0  9.5 0  C 11.2235243055556 0  12.8130425347222 0.424696180555554  14.2685546875 1.27408854166667  C 15.7240668402778 2.12348090277778  16.8765190972222 3.27593315972222  17.7259114583333 4.7314453125  Z " fill-rule="nonzero" fill="#d9001b" stroke="none" transform="matrix(1 0 0 1 1277 437 )" />
  </g>
</svg>