<?xml version="1.0" encoding="utf-8"?>
<svg version="1.1" xmlns:xlink="http://www.w3.org/1999/xlink" width="19px" height="19px" xmlns="http://www.w3.org/2000/svg">
  <g transform="matrix(1 0 0 1 -1169 -437 )">
    <path d="M 15.66015625 8.052734375  C 15.80859375 7.904296875  15.8828125 7.71875  15.8828125 7.49609375  C 15.8828125 7.26519097222222  15.80859375 7.07552083333333  15.66015625 6.92708333333333  L 14.5345052083333 5.81380208333333  C 14.3778211805556 5.65711805555555  14.1922743055556 5.57877604166667  13.9778645833333 5.57877604166667  C 13.7634548611111 5.57877604166667  13.5779079861111 5.65711805555555  13.4212239583333 5.81380208333333  L 8.37434895833333 10.8483072916667  L 5.57877604166667 8.052734375  C 5.42209201388889 7.89605034722222  5.23654513888889 7.81770833333333  5.02213541666667 7.81770833333333  C 4.80772569444444 7.81770833333333  4.62217881944444 7.89605034722222  4.46549479166667 8.052734375  L 3.33984375 9.166015625  C 3.19140625 9.314453125  3.1171875 9.50412326388889  3.1171875 9.73502604166667  C 3.1171875 9.95768229166667  3.19140625 10.1432291666667  3.33984375 10.2916666666667  L 7.81770833333333 14.76953125  C 7.97439236111111 14.9262152777778  8.15993923611111 15.0045572916667  8.37434895833333 15.0045572916667  C 8.59700520833333 15.0045572916667  8.78667534722222 14.9262152777778  8.943359375 14.76953125  L 15.66015625 8.052734375  Z M 17.7259114583333 4.7314453125  C 18.5753038194444 6.18695746527778  19 7.77647569444444  19 9.5  C 19 11.2235243055556  18.5753038194444 12.8130425347222  17.7259114583333 14.2685546875  C 16.8765190972222 15.7240668402778  15.7240668402778 16.8765190972222  14.2685546875 17.7259114583333  C 12.8130425347222 18.5753038194444  11.2235243055556 19  9.5 19  C 7.77647569444444 19  6.18695746527778 18.5753038194444  4.7314453125 17.7259114583333  C 3.27593315972222 16.8765190972222  2.12348090277778 15.7240668402778  1.27408854166667 14.2685546875  C 0.424696180555555 12.8130425347222  0 11.2235243055556  0 9.5  C 0 7.77647569444444  0.424696180555555 6.18695746527778  1.27408854166667 4.7314453125  C 2.12348090277778 3.27593315972222  3.27593315972222 2.12348090277778  4.7314453125 1.27408854166667  C 6.18695746527778 0.424696180555554  7.77647569444444 0  9.5 0  C 11.2235243055556 0  12.8130425347222 0.424696180555554  14.2685546875 1.27408854166667  C 15.7240668402778 2.12348090277778  16.8765190972222 3.27593315972222  17.7259114583333 4.7314453125  Z " fill-rule="nonzero" fill="#70b603" stroke="none" transform="matrix(1 0 0 1 1169 437 )" />
  </g>
</svg>