<svg width="134" height="46" viewBox="0 0 134 46" fill="none" xmlns="http://www.w3.org/2000/svg">
<path d="M39.0039 34.6666V24.9423H45.1366V26.3193H40.5797V29.0733H44.2848V30.4362H40.5797V33.2754H45.1366V34.6666H39.0039Z" fill="#FDFEFE"/>
<path d="M47.3744 24.9423L49.4612 28.7752L51.5764 24.9423H53.2374L50.3556 29.8825L53.2374 34.6666H51.4771L49.3903 31.004L47.2608 34.6666H45.5999L48.4959 29.9677L45.5999 24.9423H47.3744Z" fill="#FDFEFE"/>
<path d="M57.7994 31.6428H55.8119V34.6666H54.2361V24.9423H57.7994C60.0045 24.9423 61.107 26.0307 61.107 28.2074C61.107 29.3241 60.8278 30.1759 60.2695 30.7627C59.7206 31.3495 58.8972 31.6428 57.7994 31.6428ZM55.8119 30.28H57.7852C58.9208 30.28 59.4887 29.5891 59.4887 28.2074C59.4887 27.5449 59.3515 27.0622 59.077 26.7594C58.8025 26.4565 58.3719 26.3051 57.7852 26.3051H55.8119V30.28Z" fill="#FDFEFE"/>
<path d="M67.761 34.6666H62.3097V24.9423H63.8855V33.2612H67.761V34.6666Z" fill="#FDFEFE"/>
<path d="M70.2566 32.6082C70.5784 33.1666 71.1935 33.4457 72.1021 33.4457C73.0106 33.4457 73.6211 33.1713 73.9334 32.6224C74.2551 32.0735 74.416 31.1554 74.416 29.8683C74.416 28.5718 74.2504 27.6301 73.9192 27.0433C73.5974 26.4565 72.9917 26.1632 72.1021 26.1632C71.2125 26.1632 70.602 26.4565 70.2708 27.0433C69.9395 27.6301 69.7739 28.567 69.7739 29.8541C69.7739 31.1318 69.9348 32.0498 70.2566 32.6082ZM75.1684 33.6303C74.5911 34.4253 73.569 34.8228 72.1021 34.8228C70.6351 34.8228 69.6083 34.4253 69.0215 33.6303C68.4348 32.8258 68.1414 31.5671 68.1414 29.8541C68.1414 28.1411 68.4348 26.8682 69.0215 26.0354C69.6178 25.2026 70.6446 24.7861 72.1021 24.7861C73.5595 24.7861 74.5817 25.2026 75.1684 26.0354C75.7552 26.8588 76.0486 28.1317 76.0486 29.8541C76.0486 31.5766 75.7552 32.8353 75.1684 33.6303Z" fill="#FDFEFE"/>
<path d="M79.1455 31.2028V34.6666H77.5697V24.9423H81.2607C83.4563 24.9423 84.5542 25.9739 84.5542 28.037C84.5542 29.4188 84.0242 30.3557 82.9642 30.8479L84.5684 34.6666H82.8364L81.431 31.2028H79.1455ZM82.9358 28.0512C82.9358 26.8872 82.3774 26.3051 81.2607 26.3051H79.1455V29.8399H81.2891C81.8569 29.8399 82.2733 29.679 82.5383 29.3573C82.8033 29.026 82.9358 28.5907 82.9358 28.0512Z" fill="#FDFEFE"/>
<path d="M86.0315 34.6666V24.9423H92.1642V26.3193H87.6072V29.0733H91.3124V30.4362H87.6072V33.2754H92.1642V34.6666H86.0315Z" fill="#FDFEFE"/>
<path d="M95.1402 31.2028V34.6666H93.5644V24.9423H97.2554C99.4511 24.9423 100.549 25.9739 100.549 28.037C100.549 29.4188 100.019 30.3557 98.9589 30.8479L100.563 34.6666H98.8312L97.4257 31.2028H95.1402ZM98.9305 28.0512C98.9305 26.8872 98.3722 26.3051 97.2554 26.3051H95.1402V29.8399H97.2838C97.8516 29.8399 98.268 29.679 98.533 29.3573C98.798 29.026 98.9305 28.5907 98.9305 28.0512Z" fill="#FDFEFE"/>
<path opacity="0.62" d="M8.13312 37.4382L13.1788 31.2192C13.7058 30.5695 14.6971 30.5695 15.2242 31.2192L20.2698 37.4382C20.6622 37.9218 20.6622 38.6141 20.2698 39.0977L15.2242 45.3167C14.6971 45.9664 13.7058 45.9664 13.1788 45.3167L8.13312 39.0977C7.74078 38.6141 7.74078 37.9218 8.13312 37.4382Z" fill="#1BA5F8"/>
<path d="M15.9722 22.2306L21.0179 16.0115C21.5449 15.3619 22.5362 15.3619 23.0633 16.0115L28.1089 22.2306C28.5013 22.7142 28.5013 23.4064 28.1089 23.89L23.0633 30.1091C22.5362 30.7587 21.5449 30.7587 21.0179 30.1091L15.9722 23.89C15.5799 23.4064 15.5799 22.7142 15.9722 22.2306Z" fill="#1BA5F8"/>
<path d="M0.294256 22.2306L5.33991 16.0115C5.86696 15.3619 6.85824 15.3619 7.38529 16.0115L12.4309 22.2306C12.8233 22.7142 12.8233 23.4064 12.4309 23.89L7.38529 30.1091C6.85824 30.7587 5.86696 30.7587 5.33991 30.1091L0.294256 23.89C-0.0980855 23.4064 -0.0980855 22.7142 0.294256 22.2306Z" fill="#1BA5F8"/>
<path d="M8.13324 12.5102L13.1789 6.29117C13.7059 5.64155 14.6972 5.64155 15.2243 6.29117L20.2699 12.5102C20.6623 12.9938 20.6623 13.6861 20.2699 14.1697L15.2243 20.3888C14.6972 21.0384 13.7059 21.0384 13.1789 20.3888L8.13324 14.1697C7.7409 13.6861 7.7409 12.9938 8.13324 12.5102Z" fill="#1BA5F8"/>
<path d="M46.2702 10.7072C44.689 10.5032 43.5796 10.4012 42.9421 10.4012C42.3173 10.4012 41.9092 10.4586 41.7179 10.5733C41.5394 10.6881 41.4502 10.873 41.4502 11.128C41.4502 11.3703 41.5713 11.5424 41.8136 11.6444C42.0686 11.7337 42.7062 11.874 43.7263 12.0652C44.7591 12.2438 45.4924 12.5434 45.9259 12.9642C46.3594 13.385 46.5762 14.0672 46.5762 15.0108C46.5762 17.0765 45.2947 18.1094 42.7317 18.1094C41.8901 18.1094 40.87 17.9946 39.6713 17.7651L39.0593 17.6504L39.1358 15.5081C40.717 15.7121 41.8136 15.8141 42.4256 15.8141C43.0505 15.8141 43.4713 15.7568 43.688 15.642C43.9176 15.5145 44.0323 15.3296 44.0323 15.0873C44.0323 14.845 43.9112 14.6665 43.6689 14.5518C43.4394 14.437 42.8273 14.2967 41.8327 14.131C40.8508 13.9652 40.1176 13.6847 39.6331 13.2894C39.1485 12.8941 38.9062 12.1927 38.9062 11.1854C38.9062 10.1653 39.2505 9.40019 39.9391 8.89013C40.6277 8.36732 41.5139 8.10592 42.5978 8.10592C43.3501 8.10592 44.3766 8.22706 45.6772 8.46933L46.3084 8.5841L46.2702 10.7072Z" fill="#FDFEFE"/>
<path d="M54.9095 10.7072C53.3283 10.5032 52.219 10.4012 51.5814 10.4012C50.9566 10.4012 50.5485 10.4586 50.3573 10.5733C50.1787 10.6881 50.0895 10.873 50.0895 11.128C50.0895 11.3703 50.2106 11.5424 50.4529 11.6444C50.7079 11.7337 51.3455 11.874 52.3656 12.0652C53.3985 12.2438 54.1317 12.5434 54.5652 12.9642C54.9988 13.385 55.2156 14.0672 55.2156 15.0108C55.2156 17.0765 53.934 18.1094 51.371 18.1094C50.5294 18.1094 49.5093 17.9946 48.3107 17.7651L47.6986 17.6504L47.7751 15.5081C49.3563 15.7121 50.4529 15.8141 51.065 15.8141C51.6898 15.8141 52.1106 15.7568 52.3274 15.642C52.5569 15.5145 52.6716 15.3296 52.6716 15.0873C52.6716 14.845 52.5505 14.6665 52.3082 14.5518C52.0787 14.437 51.4666 14.2967 50.472 14.131C49.4902 13.9652 48.757 13.6847 48.2724 13.2894C47.7879 12.8941 47.5456 12.1927 47.5456 11.1854C47.5456 10.1653 47.8899 9.40019 48.5784 8.89013C49.267 8.36732 50.1532 8.10592 51.2371 8.10592C51.9894 8.10592 53.0159 8.22706 54.3166 8.46933L54.9478 8.5841L54.9095 10.7072Z" fill="#FDFEFE"/>
<path d="M55.6898 8.31632H58.3676L59.8978 15.6994H60.4334L62.04 8.31632H64.6413L62.3461 17.8799H57.9851L55.6898 8.31632Z" fill="#FDFEFE"/>
<path d="M71.8674 17.8799H70.4328V8.31632H71.8482V8.98577C72.8811 8.41195 73.8693 8.12505 74.8129 8.12505C76.0881 8.12505 76.9424 8.46933 77.376 9.15791C77.8223 9.84649 78.0454 11.0706 78.0454 12.8303V17.8799H76.63V12.8686C76.63 11.5424 76.4961 10.6371 76.2283 10.1525C75.9733 9.65522 75.4186 9.40656 74.5643 9.40656C74.1562 9.40656 73.7227 9.47032 73.2636 9.59783C72.8173 9.7126 72.4731 9.82736 72.2308 9.94212L71.8674 10.1143V17.8799Z" fill="#FDFEFE"/>
<path d="M86.8269 16.694L87.3815 16.6366L87.4198 17.7651C85.9661 17.9691 84.7229 18.0711 83.69 18.0711C82.3129 18.0711 81.3374 17.6759 80.7636 16.8853C80.1897 16.0819 79.9028 14.8387 79.9028 13.1555C79.9028 9.80186 81.2354 8.12505 83.9004 8.12505C85.1883 8.12505 86.151 8.48846 86.7886 9.21529C87.4262 9.92937 87.745 11.0579 87.745 12.6008L87.6684 13.691H81.3565C81.3565 14.7494 81.5478 15.5336 81.9303 16.0437C82.3129 16.5537 82.9759 16.8088 83.9195 16.8088C84.8759 16.8088 85.845 16.7705 86.8269 16.694ZM86.3104 12.5434C86.3104 11.3703 86.1191 10.5414 85.7366 10.0569C85.3668 9.57233 84.7547 9.33005 83.9004 9.33005C83.0588 9.33005 82.4212 9.58508 81.9877 10.0951C81.5669 10.6052 81.3501 11.4213 81.3374 12.5434H86.3104Z" fill="#FDFEFE"/>
<path d="M94.4959 9.55958H91.4547V14.131C91.4547 15.2276 91.5312 15.948 91.6842 16.2923C91.85 16.6366 92.2326 16.8088 92.8319 16.8088L94.5342 16.694L94.6298 17.8799C93.7755 18.0201 93.1252 18.0903 92.6789 18.0903C91.6842 18.0903 90.9957 17.848 90.6131 17.3634C90.2306 16.8789 90.0393 15.9544 90.0393 14.59V9.55958H88.6813V8.31632H90.0393V5.38987H91.4547V8.31632H94.4959V9.55958Z" fill="#FDFEFE"/>
<path d="M95.081 8.31632H96.5155L98.4473 16.6366H98.7534L101.029 8.50759H102.521L104.798 16.6366H105.123L107.035 8.31632H108.47L106.194 17.8799H103.803L101.775 10.4012L99.748 17.8799H97.3571L95.081 8.31632Z" fill="#FDFEFE"/>
<path d="M109.538 13.079C109.538 11.332 109.85 10.0696 110.475 9.2918C111.1 8.51396 112.152 8.12505 113.631 8.12505C115.123 8.12505 116.175 8.51396 116.787 9.2918C117.412 10.0696 117.724 11.332 117.724 13.079C117.724 14.8259 117.431 16.0947 116.844 16.8853C116.258 17.6759 115.187 18.0711 113.631 18.0711C112.075 18.0711 111.004 17.6759 110.418 16.8853C109.831 16.0947 109.538 14.8259 109.538 13.079ZM111.011 13.0598C111.011 14.4497 111.176 15.4252 111.508 15.9863C111.852 16.5474 112.56 16.8279 113.631 16.8279C114.715 16.8279 115.423 16.5537 115.754 16.0054C116.086 15.4444 116.252 14.4625 116.252 13.0598C116.252 11.6572 116.067 10.6945 115.697 10.1716C115.327 9.63609 114.638 9.36831 113.631 9.36831C112.637 9.36831 111.948 9.63609 111.565 10.1716C111.196 10.6945 111.011 11.6572 111.011 13.0598Z" fill="#FDFEFE"/>
<path d="M119.681 17.8799V8.31632H121.097V9.61696C122.206 8.85188 123.373 8.3482 124.597 8.10592V9.55958C124.062 9.66159 123.5 9.82098 122.914 10.0378C122.34 10.2545 121.9 10.4458 121.594 10.6116L121.116 10.8602V17.8799H119.681Z" fill="#FDFEFE"/>
<path d="M127.346 17.8799H125.911V4.14661H127.346V12.2565L128.838 12.18L131.573 8.31632H133.199L130.081 12.7156L133.332 17.8799H131.707L128.857 13.4424L127.346 13.4998V17.8799Z" fill="#FDFEFE"/>
<path d="M65.4971 15.0578C65.4971 14.8846 65.6375 14.7443 65.8106 14.7443H68.0055C68.1787 14.7443 68.3191 14.8846 68.3191 15.0578V17.5663C68.3191 17.7395 68.1787 17.8799 68.0055 17.8799H65.8106C65.6375 17.8799 65.4971 17.7395 65.4971 17.5663V15.0578Z" fill="#1BA5F8"/>
</svg>
