<svg width="134" height="40" viewBox="0 0 134 40" fill="none" xmlns="http://www.w3.org/2000/svg">
    <path d="M39.004 34.667v-9.725h6.133v1.377H40.58v2.754h3.705v1.363H40.58v2.84h4.557v1.39h-6.133zM47.374 24.942l2.087 3.833 2.116-3.833h1.66l-2.881 4.94 2.881 4.785h-1.76l-2.087-3.663-2.13 3.663H45.6l2.896-4.7-2.896-5.025h1.774zM57.8 31.643h-1.988v3.024h-1.576v-9.725H57.8c2.206 0 3.308 1.089 3.308 3.265 0 1.117-.28 1.969-.837 2.556-.55.586-1.373.88-2.47.88zm-1.988-1.363h1.973c1.136 0 1.704-.69 1.704-2.073 0-.662-.137-1.145-.412-1.448-.274-.303-.705-.454-1.292-.454h-1.973v3.975zM67.761 34.667H62.31v-9.725h1.575v8.32h3.876v1.405zM70.257 32.608c.321.559.936.838 1.845.838.909 0 1.52-.275 1.831-.824.322-.548.483-1.467.483-2.754 0-1.296-.166-2.238-.497-2.825-.322-.587-.927-.88-1.817-.88-.89 0-1.5.293-1.831.88-.331.587-.497 1.524-.497 2.811 0 1.278.16 2.196.483 2.754zm4.911 1.022c-.577.795-1.599 1.193-3.066 1.193-1.467 0-2.494-.398-3.08-1.193-.587-.804-.88-2.063-.88-3.776 0-1.713.293-2.986.88-3.819.596-.832 1.623-1.249 3.08-1.249 1.458 0 2.48.417 3.066 1.25.587.823.88 2.096.88 3.818 0 1.723-.293 2.981-.88 3.776zM79.145 31.203v3.464H77.57v-9.725h3.69c2.196 0 3.294 1.032 3.294 3.095 0 1.382-.53 2.319-1.59 2.81l1.604 3.82h-1.731l-1.406-3.464h-2.285zm3.79-3.152c0-1.164-.558-1.746-1.674-1.746h-2.115v3.535h2.143c.568 0 .984-.16 1.25-.483.264-.331.397-.766.397-1.306zM86.031 34.667v-9.725h6.133v1.377h-4.557v2.754h3.705v1.363h-3.705v2.84h4.557v1.39h-6.133zM95.14 31.203v3.464h-1.576v-9.725h3.691c2.196 0 3.294 1.032 3.294 3.095 0 1.382-.53 2.319-1.59 2.81l1.604 3.82h-1.732l-1.405-3.464H95.14zm3.79-3.152c0-1.164-.558-1.746-1.675-1.746H95.14v3.535h2.144c.568 0 .984-.16 1.25-.483.264-.331.397-.766.397-1.306z" fill="#011627"/>
    <path opacity=".62" d="m8.133 31.634 5.046-6.219a1.317 1.317 0 0 1 2.045 0l5.046 6.22a1.317 1.317 0 0 1 0 1.659l-5.046 6.219c-.527.65-1.518.65-2.045 0l-5.046-6.22a1.317 1.317 0 0 1 0-1.659z" fill="#1BA5F8"/>
    <path d="m15.972 16.427 5.046-6.22a1.317 1.317 0 0 1 2.045 0l5.046 6.22a1.317 1.317 0 0 1 0 1.66l-5.046 6.218c-.527.65-1.518.65-2.045 0l-5.046-6.219a1.317 1.317 0 0 1 0-1.66zM.294 16.427l5.046-6.22a1.317 1.317 0 0 1 2.045 0l5.046 6.22a1.317 1.317 0 0 1 0 1.66l-5.046 6.218c-.527.65-1.518.65-2.045 0L.294 18.086a1.317 1.317 0 0 1 0-1.66zM8.133 6.706 13.18.487a1.317 1.317 0 0 1 2.045 0l5.046 6.22a1.317 1.317 0 0 1 0 1.659l-5.046 6.219c-.527.65-1.518.65-2.045 0l-5.046-6.22a1.317 1.317 0 0 1 0-1.659z" fill="#1BA5F8"/>
    <path d="M46.27 10.707c-1.58-.204-2.69-.306-3.327-.306-.625 0-1.033.058-1.225.172-.178.115-.267.3-.267.555 0 .242.12.414.363.516.255.09.893.23 1.913.421 1.033.179 1.766.478 2.2.9.433.42.65 1.102.65 2.046 0 2.066-1.282 3.098-3.845 3.098-.841 0-1.861-.114-3.06-.344l-.612-.115.076-2.142c1.581.204 2.678.306 3.29.306.625 0 1.046-.057 1.262-.172.23-.127.345-.312.345-.555 0-.242-.121-.42-.364-.535-.23-.115-.841-.255-1.836-.421-.982-.166-1.715-.446-2.2-.842-.484-.395-.726-1.096-.726-2.104 0-1.02.344-1.785 1.033-2.295.688-.523 1.574-.784 2.658-.784.753 0 1.78.121 3.08.363l.63.115-.037 2.123zM54.91 10.707c-1.581-.204-2.69-.306-3.328-.306-.625 0-1.033.058-1.224.172-.179.115-.268.3-.268.555 0 .242.121.414.363.516.255.09.893.23 1.913.421 1.033.179 1.766.478 2.2.9.433.42.65 1.102.65 2.046 0 2.066-1.282 3.098-3.845 3.098-.841 0-1.861-.114-3.06-.344l-.612-.115.077-2.142c1.58.204 2.677.306 3.29.306.624 0 1.045-.057 1.262-.172.23-.127.344-.312.344-.555 0-.242-.121-.42-.363-.535-.23-.115-.842-.255-1.837-.421-.981-.166-1.715-.446-2.2-.842-.484-.395-.726-1.096-.726-2.104 0-1.02.344-1.785 1.033-2.295.688-.523 1.575-.784 2.659-.784.752 0 1.778.121 3.08.363l.63.115-.038 2.123zM55.69 8.316h2.678l1.53 7.383h.536l1.607-7.383h2.6l-2.294 9.564h-4.361L55.69 8.316zM71.868 17.88h-1.435V8.316h1.416v.67c1.033-.574 2.02-.861 2.964-.861 1.276 0 2.13.344 2.563 1.033.447.688.67 1.913.67 3.672v5.05H76.63v-5.011c0-1.327-.133-2.232-.401-2.716-.255-.498-.81-.746-1.664-.746-.408 0-.842.063-1.3.19-.447.116-.791.23-1.034.345l-.363.172v7.766zM86.827 16.694l.555-.057.038 1.128c-1.453.204-2.697.306-3.73.306-1.377 0-2.352-.395-2.926-1.186-.574-.803-.86-2.046-.86-3.73 0-3.353 1.332-5.03 3.997-5.03 1.288 0 2.25.363 2.888 1.09.638.714.956 1.843.956 3.386l-.076 1.09h-6.312c0 1.058.191 1.843.574 2.353.382.51 1.045.765 1.989.765.956 0 1.925-.039 2.907-.115zm-.516-4.15c0-1.174-.191-2.003-.574-2.487-.37-.485-.982-.727-1.836-.727-.842 0-1.48.255-1.913.765-.42.51-.637 1.326-.65 2.448h4.973zM94.496 9.56h-3.04v4.571c0 1.097.076 1.817.229 2.161.165.345.548.517 1.147.517l1.703-.115.095 1.186c-.854.14-1.504.21-1.95.21-.995 0-1.684-.242-2.066-.727-.383-.484-.574-1.409-.574-2.773V9.56h-1.358V8.316h1.358V5.39h1.415v2.926h3.041V9.56zM95.081 8.316h1.435l1.932 8.32h.306l2.276-8.128h1.492l2.276 8.129h.325l1.913-8.32h1.434l-2.276 9.563h-2.391l-2.027-7.479-2.027 7.479h-2.391L95.08 8.316zM109.538 13.079c0-1.747.313-3.01.938-3.787.624-.778 1.676-1.167 3.156-1.167 1.492 0 2.544.389 3.156 1.167.624.778.937 2.04.937 3.787 0 1.747-.293 3.016-.88 3.806s-1.658 1.186-3.213 1.186c-1.556 0-2.627-.395-3.214-1.186-.586-.79-.88-2.06-.88-3.806zm1.473-.02c0 1.39.166 2.366.497 2.927.345.561 1.052.842 2.124.842 1.083 0 1.791-.274 2.123-.823.331-.56.497-1.542.497-2.945 0-1.403-.185-2.366-.555-2.888-.369-.536-1.058-.804-2.065-.804-.995 0-1.684.268-2.066.804-.37.522-.555 1.485-.555 2.888zM119.682 17.88V8.316h1.415v1.301c1.11-.765 2.276-1.269 3.501-1.511V9.56a10.59 10.59 0 0 0-1.684.478c-.573.216-1.013.408-1.319.574l-.479.248v7.02h-1.434zM127.346 17.88h-1.434V4.147h1.434v8.11l1.492-.077 2.735-3.864h1.626l-3.118 4.4 3.252 5.164h-1.626l-2.85-4.438-1.511.058v4.38z" fill="#011627"/>
    <path d="M65.498 15.058c0-.173.14-.314.313-.314h2.195c.174 0 .314.14.314.314v2.508c0 .174-.14.314-.314.314h-2.195a.314.314 0 0 1-.313-.314v-2.508z" fill="#1BA5F8"/>
</svg>
