<svg width="1579" height="350" viewBox="0 0 1579 350" fill="none" xmlns="http://www.w3.org/2000/svg">
<path opacity="0.62" d="M64.7821 251.364L104.971 201.95C109.168 196.791 117.067 196.791 121.263 201.95L161.453 251.364C164.579 255.209 164.579 260.704 161.453 264.549L121.263 313.963C117.067 319.122 109.168 319.122 104.971 313.963L64.7821 264.549C61.656 260.704 61.656 255.209 64.7821 251.364Z" fill="#2DB1FF"/>
<path d="M127.224 130.526L167.413 81.112C171.61 75.9529 179.509 75.9529 183.705 81.112L223.895 130.526C227.021 134.371 227.021 139.866 223.895 143.712L183.705 193.126C179.509 198.285 171.61 198.285 167.413 193.126L127.224 143.712C124.098 139.866 124.098 134.371 127.224 130.526Z" fill="#2DB1FF"/>
<path d="M2.34462 130.526L42.5339 81.112C46.7301 75.9529 54.6297 75.9529 58.826 81.112L99.0152 130.526C102.141 134.371 102.141 139.866 99.0152 143.712L58.826 193.126C54.6297 198.285 46.7301 198.285 42.5339 193.126L2.34462 143.712C-0.781541 139.866 -0.781541 134.371 2.34462 130.526Z" fill="#2DB1FF"/>
<path d="M64.7821 53.2892L104.971 3.86936C109.168 -1.28979 117.067 -1.28979 121.263 3.86936L161.453 53.2832C164.579 57.1286 164.579 62.6237 161.453 66.469L121.263 115.883C117.067 121.042 109.168 121.042 104.971 115.883L64.7821 66.475C61.656 62.6297 61.656 57.1286 64.7821 53.2892Z" fill="#2DB1FF"/>
<path d="M1520.45 122.555L1578.1 184.98H1543.15L1496.84 131.181V184.98H1470.96V17H1496.84V114.61L1542.24 59.903H1578.1L1520.45 122.555Z" fill="white"/>
<path d="M1411.72 78.0629C1415.5 71.7069 1420.5 66.7885 1426.7 63.3079C1433.06 59.6759 1440.55 57.8599 1449.17 57.8599V84.6459H1442.59C1432.45 84.6459 1424.73 87.2185 1419.44 92.3639C1414.29 97.5092 1411.72 106.438 1411.72 119.15V184.98H1385.84V59.9029H1411.72V78.0629Z" fill="white"/>
<path d="M1297.34 187.023C1285.53 187.023 1274.86 184.375 1265.33 179.078C1255.79 173.63 1248.3 166.063 1242.86 156.378C1237.41 146.541 1234.68 135.191 1234.68 122.328C1234.68 109.616 1237.48 98.3415 1243.08 88.5049C1248.68 78.6682 1256.32 71.1015 1266.01 65.8049C1275.69 60.5082 1286.52 57.8599 1298.47 57.8599C1310.43 57.8599 1321.25 60.5082 1330.93 65.8049C1340.62 71.1015 1348.26 78.6682 1353.86 88.5049C1359.46 98.3415 1362.26 109.616 1362.26 122.328C1362.26 135.04 1359.38 146.314 1353.63 156.151C1347.88 165.988 1340.01 173.63 1330.02 179.078C1320.19 184.375 1309.29 187.023 1297.34 187.023ZM1297.34 164.55C1303.99 164.55 1310.2 162.961 1315.95 159.783C1321.85 156.605 1326.62 151.838 1330.25 145.482C1333.88 139.126 1335.7 131.408 1335.7 122.328C1335.7 113.248 1333.96 105.606 1330.48 99.4009C1327 93.0449 1322.38 88.2779 1316.63 85.0999C1310.88 81.9219 1304.68 80.3329 1298.02 80.3329C1291.36 80.3329 1285.15 81.9219 1279.4 85.0999C1273.8 88.2779 1269.34 93.0449 1266.01 99.4009C1262.68 105.606 1261.02 113.248 1261.02 122.328C1261.02 135.797 1264.42 146.239 1271.23 153.654C1278.19 160.918 1286.89 164.55 1297.34 164.55Z" fill="white"/>
<path d="M1225.74 59.9028L1186.93 184.98H1159.69L1134.49 92.5908L1109.29 184.98H1082.05L1043.01 59.9028H1069.34L1095.45 160.464L1122 59.9028H1149.02L1174.44 160.01L1200.32 59.9028H1225.74Z" fill="white"/>
<path d="M1005.49 81.014V150.249C1005.49 154.94 1006.55 158.345 1008.67 160.464C1010.94 162.431 1014.73 163.415 1020.02 163.415H1035.91V184.98H1015.48C1003.83 184.98 994.901 182.256 988.697 176.808C982.492 171.36 979.39 162.507 979.39 150.249V81.014H964.635V59.903H979.39V28.804H1005.49V59.903H1035.91V81.014H1005.49Z" fill="white"/>
<path d="M951.837 119.377C951.837 124.068 951.535 128.306 950.929 132.089H855.362C856.119 142.077 859.827 150.098 866.485 156.151C873.144 162.204 881.316 165.231 891.001 165.231C904.924 165.231 914.76 159.405 920.511 147.752H948.432C944.649 159.253 937.763 168.712 927.775 176.127C917.939 183.391 905.68 187.023 891.001 187.023C879.046 187.023 868.301 184.375 858.767 179.078C849.385 173.63 841.969 166.063 836.521 156.378C831.225 146.541 828.576 135.191 828.576 122.328C828.576 109.465 831.149 98.1902 836.294 88.5049C841.591 78.6682 848.931 71.1015 858.313 65.8049C867.847 60.5082 878.743 57.8599 891.001 57.8599C902.805 57.8599 913.323 60.4325 922.554 65.5779C931.786 70.7232 938.974 77.9872 944.119 87.3699C949.265 96.6012 951.837 107.27 951.837 119.377ZM924.824 111.205C924.673 101.671 921.268 94.0285 914.609 88.2779C907.951 82.5272 899.703 79.6519 889.866 79.6519C880.938 79.6519 873.295 82.5272 866.939 88.2779C860.583 93.8772 856.8 101.52 855.589 111.205H924.824Z" fill="white"/>
<path d="M754.891 57.8599C764.728 57.8599 773.505 59.9029 781.223 63.9889C789.093 68.0749 795.221 74.1282 799.61 82.1489C803.999 90.1695 806.193 99.8549 806.193 111.205V184.98H780.542V115.064C780.542 103.865 777.742 95.3149 772.143 89.4129C766.544 83.3595 758.901 80.3329 749.216 80.3329C739.531 80.3329 731.813 83.3595 726.062 89.4129C720.463 95.3149 717.663 103.865 717.663 115.064V184.98H691.785V59.9029H717.663V74.2039C721.901 69.0585 727.273 65.0482 733.78 62.1729C740.439 59.2975 747.476 57.8599 754.891 57.8599Z" fill="white"/>
<path d="M653.356 186.569C648.665 186.569 644.73 184.98 641.552 181.802C638.374 178.624 636.785 174.689 636.785 169.998C636.785 165.307 638.374 161.372 641.552 158.194C644.73 155.016 648.665 153.427 653.356 153.427C657.896 153.427 661.755 155.016 664.933 158.194C668.111 161.372 669.7 165.307 669.7 169.998C669.7 174.689 668.111 178.624 664.933 181.802C661.755 184.98 657.896 186.569 653.356 186.569Z" fill="#2DB1FF"/>
<path d="M587.678 161.826L623.09 59.9028H650.557L602.887 184.98H572.015L524.572 59.9028H552.266L587.678 161.826Z" fill="white"/>
<path d="M465.469 187.023C455.632 187.023 446.779 185.283 438.91 181.802C431.192 178.17 425.063 173.327 420.523 167.274C415.983 161.069 413.561 154.184 413.259 146.617H440.045C440.499 151.914 442.996 156.378 447.536 160.01C452.227 163.491 458.053 165.231 465.015 165.231C472.279 165.231 477.878 163.869 481.813 161.145C485.899 158.27 487.942 154.638 487.942 150.249C487.942 145.558 485.672 142.077 481.132 139.807C476.743 137.537 469.706 135.04 460.021 132.316C450.638 129.743 442.996 127.246 437.094 124.825C431.192 122.404 426.046 118.696 421.658 113.702C417.42 108.708 415.302 102.125 415.302 93.9529C415.302 87.2942 417.269 81.2409 421.204 75.7929C425.138 70.1935 430.738 65.8049 438.002 62.6269C445.417 59.4489 453.892 57.8599 463.426 57.8599C477.651 57.8599 489.077 61.4919 497.703 68.7559C506.48 75.8685 511.171 85.6295 511.777 98.0389H485.899C485.445 92.4395 483.175 87.9752 479.089 84.6459C475.003 81.3165 469.479 79.6519 462.518 79.6519C455.708 79.6519 450.487 80.9382 446.855 83.5109C443.223 86.0835 441.407 89.4885 441.407 93.7259C441.407 97.0552 442.617 99.8549 445.039 102.125C447.46 104.395 450.411 106.211 453.892 107.573C457.372 108.784 462.518 110.373 469.328 112.34C478.408 114.761 485.823 117.258 491.574 119.831C497.476 122.252 502.545 125.884 506.783 130.727C511.02 135.57 513.214 142.001 513.366 150.022C513.366 157.135 511.398 163.491 507.464 169.09C503.529 174.689 497.93 179.078 490.666 182.256C483.553 185.434 475.154 187.023 465.469 187.023Z" fill="white"/>
<path d="M346.21 187.023C336.373 187.023 327.52 185.283 319.651 181.802C311.933 178.17 305.804 173.327 301.264 167.274C296.724 161.069 294.303 154.184 294 146.617H320.786C321.24 151.914 323.737 156.378 328.277 160.01C332.968 163.491 338.795 165.231 345.756 165.231C353.02 165.231 358.619 163.869 362.554 161.145C366.64 158.27 368.683 154.638 368.683 150.249C368.683 145.558 366.413 142.077 361.873 139.807C357.484 137.537 350.447 135.04 340.762 132.316C331.379 129.743 323.737 127.246 317.835 124.825C311.933 122.404 306.788 118.696 302.399 113.702C298.162 108.708 296.043 102.125 296.043 93.9529C296.043 87.2942 298.01 81.2409 301.945 75.7929C305.88 70.1935 311.479 65.8049 318.743 62.6269C326.158 59.4489 334.633 57.8599 344.167 57.8599C358.392 57.8599 369.818 61.4919 378.444 68.7559C387.221 75.8685 391.913 85.6295 392.518 98.0389H366.64C366.186 92.4395 363.916 87.9752 359.83 84.6459C355.744 81.3165 350.22 79.6519 343.259 79.6519C336.449 79.6519 331.228 80.9382 327.596 83.5109C323.964 86.0835 322.148 89.4885 322.148 93.7259C322.148 97.0552 323.359 99.8549 325.78 102.125C328.201 104.395 331.152 106.211 334.633 107.573C338.114 108.784 343.259 110.373 350.069 112.34C359.149 114.761 366.564 117.258 372.315 119.831C378.217 122.252 383.287 125.884 387.524 130.727C391.761 135.57 393.956 142.001 394.107 150.022C394.107 157.135 392.14 163.491 388.205 169.09C384.27 174.689 378.671 179.078 371.407 182.256C364.294 185.434 355.895 187.023 346.21 187.023Z" fill="white"/>
<path d="M314.496 241.994V270.42H345.484V279.57H314.496V308.85H349.144V318H303.394V232.844H349.144V241.994H314.496ZM400.835 318L384.975 293.112L369.725 318H358.135L379.729 284.816L358.135 251.144H370.701L386.561 275.91L401.689 251.144H413.279L391.807 284.206L413.401 318H400.835ZM435.424 263.466C437.62 259.643 440.873 256.471 445.184 253.95C449.576 251.347 454.659 250.046 460.434 250.046C466.371 250.046 471.739 251.469 476.538 254.316C481.418 257.163 485.24 261.189 488.006 266.394C490.771 271.518 492.154 277.496 492.154 284.328C492.154 291.079 490.771 297.097 488.006 302.384C485.24 307.671 481.418 311.778 476.538 314.706C471.739 317.634 466.371 319.098 460.434 319.098C454.74 319.098 449.698 317.837 445.306 315.316C440.995 312.713 437.701 309.501 435.424 305.678V349.72H424.322V251.144H435.424V263.466ZM480.808 284.328C480.808 279.285 479.791 274.893 477.758 271.152C475.724 267.411 472.959 264.564 469.462 262.612C466.046 260.66 462.264 259.684 458.116 259.684C454.049 259.684 450.267 260.701 446.77 262.734C443.354 264.686 440.588 267.573 438.474 271.396C436.44 275.137 435.424 279.489 435.424 284.45C435.424 289.493 436.44 293.925 438.474 297.748C440.588 301.489 443.354 304.377 446.77 306.41C450.267 308.362 454.049 309.338 458.116 309.338C462.264 309.338 466.046 308.362 469.462 306.41C472.959 304.377 475.724 301.489 477.758 297.748C479.791 293.925 480.808 289.452 480.808 284.328ZM517.869 227.72V318H506.767V227.72H517.869ZM565.948 319.098C559.686 319.098 553.992 317.675 548.868 314.828C543.826 311.981 539.84 307.955 536.912 302.75C534.066 297.463 532.642 291.363 532.642 284.45C532.642 277.618 534.106 271.599 537.034 266.394C540.044 261.107 544.11 257.081 549.234 254.316C554.358 251.469 560.092 250.046 566.436 250.046C572.78 250.046 578.514 251.469 583.638 254.316C588.762 257.081 592.788 261.067 595.716 266.272C598.726 271.477 600.23 277.537 600.23 284.45C600.23 291.363 598.685 297.463 595.594 302.75C592.585 307.955 588.478 311.981 583.272 314.828C578.067 317.675 572.292 319.098 565.948 319.098ZM565.948 309.338C569.934 309.338 573.675 308.403 577.172 306.532C580.67 304.661 583.476 301.855 585.59 298.114C587.786 294.373 588.884 289.818 588.884 284.45C588.884 279.082 587.827 274.527 585.712 270.786C583.598 267.045 580.832 264.279 577.416 262.49C574 260.619 570.3 259.684 566.314 259.684C562.248 259.684 558.506 260.619 555.09 262.49C551.756 264.279 549.072 267.045 547.038 270.786C545.005 274.527 543.988 279.082 543.988 284.45C543.988 289.899 544.964 294.495 546.916 298.236C548.95 301.977 551.634 304.783 554.968 306.654C558.303 308.443 561.963 309.338 565.948 309.338ZM625.93 262.002C627.882 258.179 630.647 255.211 634.226 253.096C637.886 250.981 642.318 249.924 647.524 249.924V261.392H644.596C632.152 261.392 625.93 268.143 625.93 281.644V318H614.828V251.144H625.93V262.002ZM721.339 282.01C721.339 284.125 721.217 286.361 720.973 288.72H667.537C667.944 295.308 670.181 300.473 674.247 304.214C678.395 307.874 683.397 309.704 689.253 309.704C694.052 309.704 698.037 308.606 701.209 306.41C704.463 304.133 706.74 301.123 708.041 297.382H719.997C718.208 303.807 714.629 309.053 709.261 313.12C703.893 317.105 697.224 319.098 689.253 319.098C682.909 319.098 677.216 317.675 672.173 314.828C667.212 311.981 663.308 307.955 660.461 302.75C657.615 297.463 656.191 291.363 656.191 284.45C656.191 277.537 657.574 271.477 660.339 266.272C663.105 261.067 666.968 257.081 671.929 254.316C676.972 251.469 682.747 250.046 689.253 250.046C695.597 250.046 701.209 251.429 706.089 254.194C710.969 256.959 714.711 260.782 717.313 265.662C719.997 270.461 721.339 275.91 721.339 282.01ZM709.871 279.692C709.871 275.463 708.936 271.843 707.065 268.834C705.195 265.743 702.633 263.425 699.379 261.88C696.207 260.253 692.669 259.44 688.765 259.44C683.153 259.44 678.355 261.229 674.369 264.808C670.465 268.387 668.229 273.348 667.659 279.692H709.871ZM747.096 262.002C749.048 258.179 751.813 255.211 755.392 253.096C759.052 250.981 763.484 249.924 768.69 249.924V261.392H765.762C753.318 261.392 747.096 268.143 747.096 281.644V318H735.994V251.144H747.096V262.002Z" fill="white"/>
</svg>
