<svg width="1579" height="350" viewBox="0 0 1579 350" fill="none" xmlns="http://www.w3.org/2000/svg">
<path opacity="0.62" d="M64.7821 251.364L104.971 201.95C109.168 196.791 117.067 196.791 121.263 201.95L161.453 251.364C164.579 255.209 164.579 260.704 161.453 264.549L121.263 313.963C117.067 319.122 109.168 319.122 104.971 313.963L64.7821 264.549C61.656 260.704 61.656 255.209 64.7821 251.364Z" fill="#2DB1FF"/>
<path d="M127.224 130.526L167.413 81.112C171.609 75.9529 179.509 75.9529 183.705 81.112L223.894 130.526C227.021 134.371 227.021 139.866 223.894 143.712L183.705 193.126C179.509 198.285 171.609 198.285 167.413 193.126L127.224 143.712C124.098 139.866 124.098 134.371 127.224 130.526Z" fill="#2DB1FF"/>
<path d="M2.34462 130.526L42.5339 81.112C46.7301 75.9529 54.6297 75.9529 58.826 81.112L99.0152 130.526C102.141 134.371 102.141 139.866 99.0152 143.712L58.826 193.126C54.6297 198.285 46.7301 198.285 42.5339 193.126L2.34462 143.712C-0.781541 139.866 -0.781541 134.371 2.34462 130.526Z" fill="#2DB1FF"/>
<path d="M64.7821 53.2892L104.971 3.86936C109.168 -1.28979 117.067 -1.28979 121.263 3.86936L161.453 53.2832C164.579 57.1286 164.579 62.6237 161.453 66.469L121.263 115.883C117.067 121.042 109.168 121.042 104.971 115.883L64.7821 66.475C61.656 62.6297 61.656 57.1286 64.7821 53.2892Z" fill="#2DB1FF"/>
<path d="M1520.45 122.555L1578.1 184.98H1543.15L1496.84 131.181V184.98H1470.96V17H1496.84V114.61L1542.24 59.903H1578.1L1520.45 122.555Z" fill="#0E0E52"/>
<path d="M1411.72 78.0629C1415.5 71.7069 1420.5 66.7885 1426.7 63.3079C1433.06 59.6759 1440.55 57.8599 1449.17 57.8599V84.6459H1442.59C1432.45 84.6459 1424.73 87.2185 1419.44 92.3639C1414.29 97.5092 1411.72 106.438 1411.72 119.15V184.98H1385.84V59.9029H1411.72V78.0629Z" fill="#0E0E52"/>
<path d="M1297.34 187.023C1285.53 187.023 1274.86 184.375 1265.33 179.078C1255.79 173.63 1248.3 166.063 1242.86 156.378C1237.41 146.541 1234.68 135.191 1234.68 122.328C1234.68 109.616 1237.48 98.3415 1243.08 88.5049C1248.68 78.6682 1256.32 71.1015 1266.01 65.8049C1275.7 60.5082 1286.52 57.8599 1298.47 57.8599C1310.43 57.8599 1321.25 60.5082 1330.93 65.8049C1340.62 71.1015 1348.26 78.6682 1353.86 88.5049C1359.46 98.3415 1362.26 109.616 1362.26 122.328C1362.26 135.04 1359.38 146.314 1353.63 156.151C1347.88 165.988 1340.01 173.63 1330.02 179.078C1320.19 184.375 1309.29 187.023 1297.34 187.023ZM1297.34 164.55C1303.99 164.55 1310.2 162.961 1315.95 159.783C1321.85 156.605 1326.62 151.838 1330.25 145.482C1333.88 139.126 1335.7 131.408 1335.7 122.328C1335.7 113.248 1333.96 105.606 1330.48 99.4009C1327 93.0449 1322.38 88.2779 1316.63 85.0999C1310.88 81.9219 1304.68 80.3329 1298.02 80.3329C1291.36 80.3329 1285.15 81.9219 1279.4 85.0999C1273.8 88.2779 1269.34 93.0449 1266.01 99.4009C1262.68 105.606 1261.02 113.248 1261.02 122.328C1261.02 135.797 1264.42 146.239 1271.23 153.654C1278.19 160.918 1286.89 164.55 1297.34 164.55Z" fill="#0E0E52"/>
<path d="M1225.74 59.9028L1186.93 184.98H1159.69L1134.49 92.5908L1109.29 184.98H1082.05L1043.01 59.9028H1069.34L1095.45 160.464L1122 59.9028H1149.02L1174.44 160.01L1200.32 59.9028H1225.74Z" fill="#0E0E52"/>
<path d="M1005.49 81.014V150.249C1005.49 154.94 1006.55 158.345 1008.67 160.464C1010.94 162.431 1014.73 163.415 1020.02 163.415H1035.91V184.98H1015.48C1003.83 184.98 994.901 182.256 988.697 176.808C982.492 171.36 979.39 162.507 979.39 150.249V81.014H964.635V59.903H979.39V28.804H1005.49V59.903H1035.91V81.014H1005.49Z" fill="#0E0E52"/>
<path d="M951.837 119.377C951.837 124.068 951.534 128.306 950.929 132.089H855.362C856.119 142.077 859.826 150.098 866.485 156.151C873.144 162.204 881.316 165.231 891.001 165.231C904.924 165.231 914.76 159.405 920.511 147.752H948.432C944.649 159.253 937.763 168.712 927.775 176.127C917.938 183.391 905.68 187.023 891.001 187.023C879.046 187.023 868.301 184.375 858.767 179.078C849.384 173.63 841.969 166.063 836.521 156.378C831.224 146.541 828.576 135.191 828.576 122.328C828.576 109.465 831.149 98.1902 836.294 88.5049C841.591 78.6682 848.93 71.1015 858.313 65.8049C867.847 60.5082 878.743 57.8599 891.001 57.8599C902.805 57.8599 913.323 60.4325 922.554 65.5779C931.785 70.7232 938.974 77.9872 944.119 87.3699C949.264 96.6012 951.837 107.27 951.837 119.377ZM924.824 111.205C924.673 101.671 921.268 94.0285 914.609 88.2779C907.95 82.5272 899.703 79.6519 889.866 79.6519C880.937 79.6519 873.295 82.5272 866.939 88.2779C860.583 93.8772 856.8 101.52 855.589 111.205H924.824Z" fill="#0E0E52"/>
<path d="M754.891 57.8599C764.728 57.8599 773.505 59.9029 781.223 63.9889C789.092 68.0749 795.221 74.1282 799.61 82.1489C803.999 90.1695 806.193 99.8549 806.193 111.205V184.98H780.542V115.064C780.542 103.865 777.742 95.3149 772.143 89.4129C766.544 83.3595 758.901 80.3329 749.216 80.3329C739.531 80.3329 731.813 83.3595 726.062 89.4129C720.463 95.3149 717.663 103.865 717.663 115.064V184.98H691.785V59.9029H717.663V74.2039C721.9 69.0585 727.273 65.0482 733.78 62.1729C740.439 59.2975 747.476 57.8599 754.891 57.8599Z" fill="#0E0E52"/>
<path d="M653.356 186.569C648.665 186.569 644.73 184.98 641.552 181.802C638.374 178.624 636.785 174.689 636.785 169.998C636.785 165.307 638.374 161.372 641.552 158.194C644.73 155.016 648.665 153.427 653.356 153.427C657.896 153.427 661.755 155.016 664.933 158.194C668.111 161.372 669.7 165.307 669.7 169.998C669.7 174.689 668.111 178.624 664.933 181.802C661.755 184.98 657.896 186.569 653.356 186.569Z" fill="#2DB1FF"/>
<path d="M587.679 161.826L623.09 59.9028H650.558L602.887 184.98H572.016L524.573 59.9028H552.266L587.679 161.826Z" fill="#0E0E52"/>
<path d="M465.469 187.023C455.632 187.023 446.779 185.283 438.91 181.802C431.192 178.17 425.063 173.327 420.523 167.274C415.983 161.069 413.561 154.184 413.259 146.617H440.045C440.499 151.914 442.996 156.378 447.536 160.01C452.227 163.491 458.053 165.231 465.015 165.231C472.279 165.231 477.878 163.869 481.813 161.145C485.899 158.27 487.942 154.638 487.942 150.249C487.942 145.558 485.672 142.077 481.132 139.807C476.743 137.537 469.706 135.04 460.021 132.316C450.638 129.743 442.996 127.246 437.094 124.825C431.192 122.404 426.046 118.696 421.658 113.702C417.42 108.708 415.302 102.125 415.302 93.9529C415.302 87.2942 417.269 81.2409 421.204 75.7929C425.138 70.1935 430.738 65.8049 438.002 62.6269C445.417 59.4489 453.892 57.8599 463.426 57.8599C477.651 57.8599 489.077 61.4919 497.703 68.7559C506.48 75.8685 511.171 85.6295 511.777 98.0389H485.899C485.445 92.4395 483.175 87.9752 479.089 84.6459C475.003 81.3165 469.479 79.6519 462.518 79.6519C455.708 79.6519 450.487 80.9382 446.855 83.5109C443.223 86.0835 441.407 89.4885 441.407 93.7259C441.407 97.0552 442.617 99.8549 445.039 102.125C447.46 104.395 450.411 106.211 453.892 107.573C457.372 108.784 462.518 110.373 469.328 112.34C478.408 114.761 485.823 117.258 491.574 119.831C497.476 122.252 502.545 125.884 506.783 130.727C511.02 135.57 513.214 142.001 513.366 150.022C513.366 157.135 511.398 163.491 507.464 169.09C503.529 174.689 497.93 179.078 490.666 182.256C483.553 185.434 475.154 187.023 465.469 187.023Z" fill="#0E0E52"/>
<path d="M346.21 187.023C336.373 187.023 327.52 185.283 319.651 181.802C311.933 178.17 305.804 173.327 301.264 167.274C296.724 161.069 294.303 154.184 294 146.617H320.786C321.24 151.914 323.737 156.378 328.277 160.01C332.968 163.491 338.795 165.231 345.756 165.231C353.02 165.231 358.619 163.869 362.554 161.145C366.64 158.27 368.683 154.638 368.683 150.249C368.683 145.558 366.413 142.077 361.873 139.807C357.484 137.537 350.447 135.04 340.762 132.316C331.379 129.743 323.737 127.246 317.835 124.825C311.933 122.404 306.788 118.696 302.399 113.702C298.162 108.708 296.043 102.125 296.043 93.9529C296.043 87.2942 298.01 81.2409 301.945 75.7929C305.88 70.1935 311.479 65.8049 318.743 62.6269C326.158 59.4489 334.633 57.8599 344.167 57.8599C358.392 57.8599 369.818 61.4919 378.444 68.7559C387.221 75.8685 391.913 85.6295 392.518 98.0389H366.64C366.186 92.4395 363.916 87.9752 359.83 84.6459C355.744 81.3165 350.22 79.6519 343.259 79.6519C336.449 79.6519 331.228 80.9382 327.596 83.5109C323.964 86.0835 322.148 89.4885 322.148 93.7259C322.148 97.0552 323.359 99.8549 325.78 102.125C328.201 104.395 331.152 106.211 334.633 107.573C338.114 108.784 343.259 110.373 350.069 112.34C359.149 114.761 366.564 117.258 372.315 119.831C378.217 122.252 383.287 125.884 387.524 130.727C391.761 135.57 393.956 142.001 394.107 150.022C394.107 157.135 392.14 163.491 388.205 169.09C384.27 174.689 378.671 179.078 371.407 182.256C364.294 185.434 355.895 187.023 346.21 187.023Z" fill="#0E0E52"/>
<path d="M737.702 262.002C739.654 258.179 742.419 255.211 745.998 253.096C749.658 250.981 754.09 249.924 759.296 249.924V261.392H756.368C743.924 261.392 737.702 268.143 737.702 281.644V318H726.6V251.144H737.702V262.002Z" fill="#1BA5F8"/>
<path d="M711.945 282.01C711.945 284.125 711.823 286.361 711.579 288.72H658.143C658.55 295.308 660.787 300.473 664.853 304.214C669.001 307.874 674.003 309.704 679.859 309.704C684.658 309.704 688.643 308.606 691.815 306.41C695.069 304.133 697.346 301.123 698.647 297.382H710.603C708.814 303.807 705.235 309.053 699.867 313.12C694.499 317.105 687.83 319.098 679.859 319.098C673.515 319.098 667.822 317.675 662.779 314.828C657.818 311.981 653.914 307.955 651.067 302.75C648.221 297.463 646.797 291.363 646.797 284.45C646.797 277.537 648.18 271.477 650.945 266.272C653.711 261.067 657.574 257.081 662.535 254.316C667.578 251.469 673.353 250.046 679.859 250.046C686.203 250.046 691.815 251.429 696.695 254.194C701.575 256.959 705.317 260.782 707.919 265.662C710.603 270.461 711.945 275.91 711.945 282.01ZM700.477 279.692C700.477 275.463 699.542 271.843 697.671 268.834C695.801 265.743 693.239 263.425 689.985 261.88C686.813 260.253 683.275 259.44 679.371 259.44C673.759 259.44 668.961 261.229 664.975 264.808C661.071 268.387 658.835 273.348 658.265 279.692H700.477Z" fill="#1BA5F8"/>
<path d="M616.536 262.002C618.488 258.179 621.253 255.211 624.832 253.096C628.492 250.981 632.924 249.924 638.13 249.924V261.392H635.202C622.758 261.392 616.536 268.143 616.536 281.644V318H605.434V251.144H616.536V262.002Z" fill="#1BA5F8"/>
<path d="M556.555 319.098C550.292 319.098 544.599 317.675 539.475 314.828C534.432 311.981 530.447 307.955 527.519 302.75C524.672 297.463 523.249 291.363 523.249 284.45C523.249 277.618 524.713 271.599 527.641 266.394C530.65 261.107 534.717 257.081 539.841 254.316C544.965 251.469 550.699 250.046 557.043 250.046C563.387 250.046 569.121 251.469 574.245 254.316C579.369 257.081 583.395 261.067 586.323 266.272C589.332 271.477 590.837 277.537 590.837 284.45C590.837 291.363 589.291 297.463 586.201 302.75C583.191 307.955 579.084 311.981 573.879 314.828C568.673 317.675 562.899 319.098 556.555 319.098ZM556.555 309.338C560.54 309.338 564.281 308.403 567.779 306.532C571.276 304.661 574.082 301.855 576.197 298.114C578.393 294.373 579.491 289.818 579.491 284.45C579.491 279.082 578.433 274.527 576.319 270.786C574.204 267.045 571.439 264.279 568.023 262.49C564.607 260.619 560.906 259.684 556.921 259.684C552.854 259.684 549.113 260.619 545.697 262.49C542.362 264.279 539.678 267.045 537.645 270.786C535.611 274.527 534.595 279.082 534.595 284.45C534.595 289.899 535.571 294.495 537.523 298.236C539.556 301.977 542.24 304.783 545.575 306.654C548.909 308.443 552.569 309.338 556.555 309.338Z" fill="#1BA5F8"/>
<path d="M508.475 227.72V318H497.373V227.72H508.475Z" fill="#1BA5F8"/>
<path d="M426.03 263.466C428.226 259.643 431.479 256.471 435.79 253.95C440.182 251.347 445.265 250.046 451.04 250.046C456.977 250.046 462.345 251.469 467.144 254.316C472.024 257.163 475.846 261.189 478.612 266.394C481.377 271.518 482.76 277.496 482.76 284.328C482.76 291.079 481.377 297.097 478.612 302.384C475.846 307.671 472.024 311.778 467.144 314.706C462.345 317.634 456.977 319.098 451.04 319.098C445.346 319.098 440.304 317.837 435.912 315.316C431.601 312.713 428.307 309.501 426.03 305.678V349.72H414.928V251.144H426.03V263.466ZM471.414 284.328C471.414 279.285 470.397 274.893 468.364 271.152C466.33 267.411 463.565 264.564 460.068 262.612C456.652 260.66 452.87 259.684 448.722 259.684C444.655 259.684 440.873 260.701 437.376 262.734C433.96 264.686 431.194 267.573 429.08 271.396C427.046 275.137 426.03 279.489 426.03 284.45C426.03 289.493 427.046 293.925 429.08 297.748C431.194 301.489 433.96 304.377 437.376 306.41C440.873 308.362 444.655 309.338 448.722 309.338C452.87 309.338 456.652 308.362 460.068 306.41C463.565 304.377 466.33 301.489 468.364 297.748C470.397 293.925 471.414 289.452 471.414 284.328Z" fill="#1BA5F8"/>
<path d="M391.441 318L375.581 293.112L360.331 318H348.741L370.335 284.816L348.741 251.144H361.307L377.167 275.91L392.295 251.144H403.885L382.413 284.206L404.007 318H391.441Z" fill="#1BA5F8"/>
<path d="M305.102 241.994V270.42H336.09V279.57H305.102V308.85H339.75V318H294V232.844H339.75V241.994H305.102Z" fill="#1BA5F8"/>
</svg>
