<svg width="9" height="7" viewBox="0 0 9 7" fill="none" xmlns="http://www.w3.org/2000/svg">
<path d="M8.01285 1.42544L6.25967 2.66363C6.02737 2.82815 5.69427 2.72857 5.59346 2.46448L4.76508 0.28249C4.62483 -0.0941634 4.08573 -0.0941634 3.94547 0.28249L3.11271 2.46015C3.0119 2.72857 2.68318 2.82815 2.45088 2.6593L0.697704 1.42111C0.347068 1.17867 -0.117524 1.52069 0.0271129 1.92332L1.85042 6.48349C1.91178 6.65667 2.07833 6.76923 2.26242 6.76923H6.43937C6.62345 6.76923 6.79001 6.65234 6.85137 6.48349L8.67468 1.92332C8.8237 1.52069 8.3591 1.17867 8.01285 1.42544ZM5.44882 5.42143H3.25735C3.07765 5.42143 2.92863 5.27423 2.92863 5.09673C2.92863 4.91923 3.07765 4.77203 3.25735 4.77203H5.44882C5.62852 4.77203 5.77754 4.91923 5.77754 5.09673C5.77754 5.27423 5.62852 5.42143 5.44882 5.42143Z" fill="#FDFEFE"/>
</svg>
