<svg width="32" height="32" viewBox="0 0 32 32" fill="none" xmlns="http://www.w3.org/2000/svg">
    <path d="M0 8a8 8 0 0 1 8-8h16a8 8 0 0 1 8 8v16a8 8 0 0 1-8 8H8a8 8 0 0 1-8-8V8z" fill="#63768B"/>
    <path fill-rule="evenodd" clip-rule="evenodd" d="M19.267 21.697a66.134 66.134 0 0 0 1.017 1.248C23.69 22.837 25 20.603 25 20.603c0-4.963-2.22-8.985-2.22-8.985C20.563 9.954 18.45 10 18.45 10l-.215.247c2.62.801 3.837 1.957 3.837 1.957a12.564 12.564 0 0 0-4.639-1.48 13.043 13.043 0 0 0-3.113.031 1.3 1.3 0 0 0-.227.025l-.035.006c-.54.046-1.85.247-3.498.971-.57.262-.91.447-.91.447s1.28-1.218 4.054-2.019L13.55 10s-2.112-.046-4.33 1.618c0 0-2.22 4.022-2.22 8.985 0 0 1.295 2.234 4.7 2.342 0 0 .57-.693 1.033-1.279-1.957-.585-2.697-1.818-2.697-1.818s.154.108.431.262c.016.015.031.03.062.046.023.015.046.027.07.039a9.03 9.03 0 0 0 1.194.563c.632.246 1.387.492 2.265.662 1.156.215 2.512.292 3.992.015.724-.123 1.464-.339 2.234-.663a8.82 8.82 0 0 0 1.773-.909s-.771 1.264-2.79 1.834zm-7.72-4.238c0-.94.693-1.71 1.571-1.71.879 0 1.588.77 1.572 1.71 0 .94-.693 1.71-1.572 1.71-.863 0-1.572-.77-1.572-1.71zm5.624 0c0-.94.694-1.71 1.572-1.71.879 0 1.572.77 1.572 1.71s-.693 1.71-1.572 1.71c-.863 0-1.572-.77-1.572-1.71z" fill="#F4F7FA"/>
</svg>
