<svg width="32" height="32" viewBox="0 0 32 32" fill="none" xmlns="http://www.w3.org/2000/svg">
    <path d="M0 8a8 8 0 0 1 8-8h16a8 8 0 0 1 8 8v16a8 8 0 0 1-8 8H8a8 8 0 0 1-8-8V8z" fill="#63768B"/>
    <path fill-rule="evenodd" clip-rule="evenodd" d="M8.203 13.367v10.835h3.443V13.367H8.203zM8 9.924c0 1.114.81 1.924 1.924 1.924 1.114 0 1.924-.81 1.924-1.924C11.848 8.81 11.038 8 9.924 8 8.911 8 8 8.81 8 9.924zm12.76 14.279H24v-6.684c0-3.342-2.025-4.456-3.95-4.456-1.72 0-2.936 1.114-3.24 1.823v-1.519h-3.24v10.835h3.443V18.43c0-1.519 1.012-2.329 2.025-2.329s1.721.507 1.721 2.228v5.873z" fill="#F4F7FA"/>
</svg>
