<svg width="32" height="32" viewBox="0 0 32 32" fill="none" xmlns="http://www.w3.org/2000/svg">
    <path d="M0 8a8 8 0 0 1 8-8h16a8 8 0 0 1 8 8v16a8 8 0 0 1-8 8H8a8 8 0 0 1-8-8V8z" fill="#63768B"/>
    <path fill-rule="evenodd" clip-rule="evenodd" d="M16.008 23h-.016c-.391-.005-1.08-.37-1.742-1.728a9.56 9.56 0 0 1-.683-1.972h4.866a9.56 9.56 0 0 1-.683 1.972c-.663 1.358-1.35 1.723-1.742 1.728zm2.649-4.9h-5.314A15.183 15.183 0 0 1 13.2 16c0-.736.05-1.44.143-2.1h5.314c.092.66.143 1.364.143 2.1s-.05 1.44-.143 2.1zm1.006 1.2c-.281 1.31-.724 2.44-1.278 3.283a7.023 7.023 0 0 0 3.79-3.283h-2.512zm3.017-1.2h-2.812c.086-.67.132-1.374.132-2.1s-.046-1.43-.132-2.1h2.812c.208.663.32 1.368.32 2.1s-.112 1.437-.32 2.1zm-10.548 0A16.46 16.46 0 0 1 12 16c0-.726.046-1.43.132-2.1H9.32A6.996 6.996 0 0 0 9 16c0 .732.112 1.437.32 2.1h2.812zm-2.307 1.2a7.024 7.024 0 0 0 3.79 3.283c-.554-.844-.997-1.974-1.278-3.283H9.825zm4.425-8.572a9.55 9.55 0 0 0-.683 1.972h4.866a9.55 9.55 0 0 0-.683-1.972C17.083 9.36 16.39 9 16 9c-.39 0-1.083.36-1.75 1.728zm5.413 1.972h2.512a7.024 7.024 0 0 0-3.79-3.283c.553.844.997 1.974 1.278 3.283zm-9.838 0h2.512c.281-1.31.725-2.44 1.278-3.283a7.023 7.023 0 0 0-3.79 3.283zM25 16a9 9 0 1 1-18 0 9 9 0 0 1 18 0z" fill="#F4F7FA"/>
</svg>
